<svg width="140" height="129" viewBox="0 0 140 129" fill="none" xmlns="http://www.w3.org/2000/svg">
<g id="Layer_1">
<g id="Group 1171276389" filter="url(#filter0_b_1_1058)">
<g id="Vector" filter="url(#filter1_b_1_1058)">
<mask id="path-1-inside-1_1_1058" fill="white">
<path d="M108.981 73.8105C122.743 73.8105 133.902 84.9662 133.902 98.7283C133.902 112.49 122.743 123.649 108.981 123.649C95.2192 123.649 84.0609 112.49 84.0609 98.7283H39.8857"/>
</mask>
<path d="M84.0609 98.7283H86.0609V96.7283H84.0609V98.7283ZM108.981 75.8105C121.639 75.8105 131.902 86.071 131.902 98.7283H135.902C135.902 83.8614 123.848 71.8105 108.981 71.8105V75.8105ZM131.902 98.7283C131.902 111.386 121.639 121.649 108.981 121.649V125.649C123.848 125.649 135.902 113.595 135.902 98.7283H131.902ZM108.981 121.649C96.3237 121.649 86.0609 111.386 86.0609 98.7283H82.0609C82.0609 113.595 94.1146 125.649 108.981 125.649V121.649ZM84.0609 96.7283H39.8857V100.728H84.0609V96.7283Z" fill="url(#paint0_linear_1_1058)" mask="url(#path-1-inside-1_1_1058)"/>
</g>
<g id="Vector_2" filter="url(#filter2_b_1_1058)">
<mask id="path-3-inside-2_1_1058" fill="white">
<path d="M47.9243 42.476C45.7654 38.7889 44.5303 34.4972 44.5303 29.9177C44.5303 16.1557 55.6859 5 69.4506 5C83.2153 5 94.3683 16.1557 94.3683 29.9177C94.3683 39.1604 89.3361 47.2282 81.865 51.5277L96.5665 77.118L99.8899 82.9012L104.017 90.0845"/>
</mask>
<path d="M81.865 51.5277L80.8674 49.7943L79.1352 50.7911L80.1308 52.524L81.865 51.5277ZM96.5665 77.118L94.8323 78.1142L94.8324 78.1144L96.5665 77.118ZM99.8899 82.9012L101.624 81.9049L101.624 81.9047L99.8899 82.9012ZM49.6502 41.4654C47.6662 38.077 46.5303 34.133 46.5303 29.9177H42.5303C42.5303 34.8614 43.8646 39.5007 46.1984 43.4866L49.6502 41.4654ZM46.5303 29.9177C46.5303 17.2604 56.7904 7 69.4506 7V3C54.5815 3 42.5303 15.051 42.5303 29.9177H46.5303ZM69.4506 7C82.1106 7 92.3683 17.2601 92.3683 29.9177H96.3683C96.3683 15.0512 84.32 3 69.4506 3V7ZM92.3683 29.9177C92.3683 38.4163 87.7436 45.8371 80.8674 49.7943L82.8625 53.2612C90.9286 48.6193 96.3683 39.9046 96.3683 29.9177H92.3683ZM80.1308 52.524L94.8323 78.1142L98.3007 76.1217L83.5992 50.5314L80.1308 52.524ZM94.8324 78.1144L98.1558 83.8977L101.624 81.9047L98.3005 76.1215L94.8324 78.1144ZM98.1557 83.8975L102.282 91.0808L105.751 89.0882L101.624 81.9049L98.1557 83.8975Z" fill="url(#paint1_linear_1_1058)" mask="url(#path-3-inside-2_1_1058)"/>
</g>
<g id="Vector_3" filter="url(#filter3_b_1_1058)">
<mask id="path-5-inside-3_1_1058" fill="white">
<path d="M51.3236 111.49C46.9744 118.773 39.0165 123.648 29.9177 123.648C28.6433 123.648 27.3924 123.551 26.1704 123.363C26.0971 123.355 26.0264 123.342 25.9532 123.331C14.0753 121.434 5 111.139 5 98.7276C5 84.9656 16.1557 73.8099 29.9177 73.8099C31.1215 73.8099 32.3069 73.8963 33.4662 74.0638C33.4714 74.0638 33.4766 74.0664 33.4819 74.0664C36.6666 74.5191 39.655 75.5763 42.3321 77.1176L60.3334 45.786L64.4838 38.5635"/>
</mask>
<path d="M41.462 76.6246L41.3731 76.7816L43.1131 77.7676L43.2021 77.6106L41.462 76.6246ZM26.1704 123.363L26.4751 121.386L26.4294 121.379L26.3834 121.374L26.1704 123.363ZM25.9532 123.331L25.6377 125.306L25.654 125.309L25.6703 125.311L25.9532 123.331ZM33.4662 74.0638L33.1802 76.0432L33.3224 76.0638H33.4662V74.0638ZM33.4819 74.0664L33.7633 72.0863L33.6233 72.0664H33.4819V74.0664ZM42.3321 77.1176L41.3341 78.8509L43.069 79.8497L44.0662 78.114L42.3321 77.1176ZM60.3334 45.786L58.5993 44.7895L58.5993 44.7897L60.3334 45.786ZM49.6065 110.465C45.6033 117.168 38.2839 121.648 29.9177 121.648V125.648C39.7492 125.648 48.3455 120.378 53.0407 112.515L49.6065 110.465ZM29.9177 121.648C28.7448 121.648 27.5958 121.559 26.4751 121.386L25.8656 125.339C27.189 125.543 28.5418 125.648 29.9177 125.648V121.648ZM26.3834 121.374C26.3937 121.375 26.3941 121.376 26.3672 121.371C26.3609 121.37 26.3541 121.369 26.3454 121.368C26.3374 121.367 26.3266 121.365 26.3162 121.363C26.2949 121.36 26.2669 121.356 26.236 121.351L25.6703 125.311C25.6924 125.314 25.6967 125.315 25.7563 125.325C25.8014 125.331 25.8738 125.342 25.9573 125.351L26.3834 121.374ZM26.2686 121.356C15.3462 119.612 7 110.141 7 98.7276H3C3 112.137 12.8043 123.256 25.6377 125.306L26.2686 121.356ZM7 98.7276C7 86.0702 17.2602 75.8099 29.9177 75.8099V71.8099C15.0511 71.8099 3 83.861 3 98.7276H7ZM29.9177 75.8099C31.0258 75.8099 32.1156 75.8894 33.1802 76.0432L33.7521 72.0843C32.4982 71.9031 31.2172 71.8099 29.9177 71.8099V75.8099ZM33.4662 76.0638C33.3839 76.0638 33.3114 76.0586 33.2511 76.0521C33.1911 76.0455 33.1404 76.0372 33.1022 76.03C33.0829 76.0264 33.0659 76.023 33.0518 76.0199C33.0377 76.0169 33.0257 76.0142 33.0165 76.012C33.0075 76.0099 33.0002 76.0081 32.996 76.0071C32.9922 76.0062 32.9889 76.0053 32.9899 76.0056C32.9899 76.0056 32.9909 76.0058 32.9921 76.0061C32.9934 76.0065 32.9955 76.007 32.998 76.0076C33.0029 76.0088 33.0108 76.0107 33.0205 76.013C33.0303 76.0153 33.0429 76.0182 33.0577 76.0213C33.0725 76.0245 33.0901 76.0281 33.1101 76.0318C33.1496 76.0392 33.2016 76.0478 33.2629 76.0545C33.3245 76.0612 33.3983 76.0664 33.4819 76.0664V72.0664C33.5641 72.0664 33.6366 72.0715 33.6969 72.0781C33.7569 72.0846 33.8076 72.0929 33.8458 72.1001C33.8651 72.1037 33.8821 72.1072 33.8962 72.1102C33.9104 72.1132 33.9223 72.116 33.9315 72.1181C33.9405 72.1202 33.9478 72.122 33.952 72.123C33.9559 72.124 33.9591 72.1248 33.9582 72.1245C33.9582 72.1245 33.9571 72.1243 33.9559 72.124C33.9546 72.1237 33.9525 72.1232 33.9501 72.1225C33.9452 72.1213 33.9373 72.1194 33.9276 72.1171C33.9178 72.1149 33.9051 72.112 33.8904 72.1088C33.8756 72.1056 33.8579 72.102 33.8379 72.0983C33.7984 72.0909 33.7465 72.0824 33.6851 72.0757C33.6236 72.069 33.5497 72.0638 33.4662 72.0638V76.0638ZM33.2004 76.0465C36.1268 76.4625 38.8727 77.4337 41.3341 78.8509L43.33 75.3844C40.4373 73.7189 37.2064 72.5757 33.7633 72.0863L33.2004 76.0465ZM44.0662 78.114L62.0676 46.7823L58.5993 44.7897L40.5979 76.1213L44.0662 78.114ZM62.0675 46.7825L66.2178 39.5599L62.7497 37.567L58.5993 44.7895L62.0675 46.7825Z" fill="url(#paint2_linear_1_1058)" mask="url(#path-5-inside-3_1_1058)"/>
</g>
<g id="Vector_4" filter="url(#filter4_b_1_1058)">
<path d="M69.4481 39.8854C74.953 39.8854 79.4157 35.4228 79.4157 29.9178C79.4157 24.4128 74.953 19.9502 69.4481 19.9502C63.9431 19.9502 59.4805 24.4128 59.4805 29.9178C59.4805 35.4228 63.9431 39.8854 69.4481 39.8854Z" fill="url(#paint3_linear_1_1058)"/>
<path d="M78.4157 29.9178C78.4157 34.8705 74.4007 38.8854 69.4481 38.8854C64.4954 38.8854 60.4805 34.8705 60.4805 29.9178C60.4805 24.9651 64.4954 20.9502 69.4481 20.9502C74.4007 20.9502 78.4157 24.9651 78.4157 29.9178Z" stroke="url(#paint4_linear_1_1058)" stroke-width="2"/>
</g>
<g id="Vector_5" filter="url(#filter5_b_1_1058)">
<path d="M29.9178 108.696C35.4228 108.696 39.8854 104.233 39.8854 98.7284C39.8854 93.2234 35.4228 88.7607 29.9178 88.7607C24.4128 88.7607 19.9502 93.2234 19.9502 98.7284C19.9502 104.233 24.4128 108.696 29.9178 108.696Z" fill="url(#paint5_linear_1_1058)"/>
<path d="M38.8854 98.7284C38.8854 103.681 34.8705 107.696 29.9178 107.696C24.9651 107.696 20.9502 103.681 20.9502 98.7284C20.9502 93.7757 24.9651 89.7607 29.9178 89.7607C34.8705 89.7607 38.8854 93.7757 38.8854 98.7284Z" stroke="url(#paint6_linear_1_1058)" stroke-width="2"/>
</g>
<g id="Vector_6" filter="url(#filter6_b_1_1058)">
<path d="M108.981 108.696C114.486 108.696 118.949 104.233 118.949 98.7284C118.949 93.2234 114.486 88.7607 108.981 88.7607C103.476 88.7607 99.0137 93.2234 99.0137 98.7284C99.0137 104.233 103.476 108.696 108.981 108.696Z" fill="url(#paint7_linear_1_1058)"/>
<path d="M117.949 98.7284C117.949 103.681 113.934 107.696 108.981 107.696C104.029 107.696 100.014 103.681 100.014 98.7284C100.014 93.7757 104.029 89.7607 108.981 89.7607C113.934 89.7607 117.949 93.7757 117.949 98.7284Z" stroke="url(#paint8_linear_1_1058)" stroke-width="2"/>
</g>
</g>
</g>
<defs>
<filter id="filter0_b_1_1058" x="-13" y="-13" width="164.901" height="154.648" filterUnits="userSpaceOnUse" color-interpolation-filters="sRGB">
<feFlood flood-opacity="0" result="BackgroundImageFix"/>
<feGaussianBlur in="BackgroundImageFix" stdDeviation="9"/>
<feComposite in2="SourceAlpha" operator="in" result="effect1_backgroundBlur_1_1058"/>
<feBlend mode="normal" in="SourceGraphic" in2="effect1_backgroundBlur_1_1058" result="shape"/>
</filter>
<filter id="filter1_b_1_1058" x="29.432" y="63.3568" width="114.923" height="70.7454" filterUnits="userSpaceOnUse" color-interpolation-filters="sRGB">
<feFlood flood-opacity="0" result="BackgroundImageFix"/>
<feGaussianBlur in="BackgroundImageFix" stdDeviation="5.22689"/>
<feComposite in2="SourceAlpha" operator="in" result="effect1_backgroundBlur_1_1058"/>
<feBlend mode="normal" in="SourceGraphic" in2="effect1_backgroundBlur_1_1058" result="shape"/>
</filter>
<filter id="filter2_b_1_1058" x="34.0765" y="-5.45377" width="80.3939" height="105.993" filterUnits="userSpaceOnUse" color-interpolation-filters="sRGB">
<feFlood flood-opacity="0" result="BackgroundImageFix"/>
<feGaussianBlur in="BackgroundImageFix" stdDeviation="5.22689"/>
<feComposite in2="SourceAlpha" operator="in" result="effect1_backgroundBlur_1_1058"/>
<feBlend mode="normal" in="SourceGraphic" in2="effect1_backgroundBlur_1_1058" result="shape"/>
</filter>
<filter id="filter3_b_1_1058" x="-5.45377" y="28.1097" width="80.3909" height="105.993" filterUnits="userSpaceOnUse" color-interpolation-filters="sRGB">
<feFlood flood-opacity="0" result="BackgroundImageFix"/>
<feGaussianBlur in="BackgroundImageFix" stdDeviation="5.22689"/>
<feComposite in2="SourceAlpha" operator="in" result="effect1_backgroundBlur_1_1058"/>
<feBlend mode="normal" in="SourceGraphic" in2="effect1_backgroundBlur_1_1058" result="shape"/>
</filter>
<filter id="filter4_b_1_1058" x="49.0267" y="9.49642" width="40.8431" height="40.8431" filterUnits="userSpaceOnUse" color-interpolation-filters="sRGB">
<feFlood flood-opacity="0" result="BackgroundImageFix"/>
<feGaussianBlur in="BackgroundImageFix" stdDeviation="5.22689"/>
<feComposite in2="SourceAlpha" operator="in" result="effect1_backgroundBlur_1_1058"/>
<feBlend mode="normal" in="SourceGraphic" in2="effect1_backgroundBlur_1_1058" result="shape"/>
</filter>
<filter id="filter5_b_1_1058" x="9.49642" y="78.307" width="40.8431" height="40.8431" filterUnits="userSpaceOnUse" color-interpolation-filters="sRGB">
<feFlood flood-opacity="0" result="BackgroundImageFix"/>
<feGaussianBlur in="BackgroundImageFix" stdDeviation="5.22689"/>
<feComposite in2="SourceAlpha" operator="in" result="effect1_backgroundBlur_1_1058"/>
<feBlend mode="normal" in="SourceGraphic" in2="effect1_backgroundBlur_1_1058" result="shape"/>
</filter>
<filter id="filter6_b_1_1058" x="88.5599" y="78.307" width="40.8431" height="40.8431" filterUnits="userSpaceOnUse" color-interpolation-filters="sRGB">
<feFlood flood-opacity="0" result="BackgroundImageFix"/>
<feGaussianBlur in="BackgroundImageFix" stdDeviation="5.22689"/>
<feComposite in2="SourceAlpha" operator="in" result="effect1_backgroundBlur_1_1058"/>
<feBlend mode="normal" in="SourceGraphic" in2="effect1_backgroundBlur_1_1058" result="shape"/>
</filter>
<linearGradient id="paint0_linear_1_1058" x1="46.5222" y1="77.7302" x2="79.7546" y2="144.761" gradientUnits="userSpaceOnUse">
<stop stop-color="white"/>
<stop offset="1" stop-color="white" stop-opacity="0"/>
</linearGradient>
<linearGradient id="paint1_linear_1_1058" x1="48.7293" y1="11.6917" x2="117.097" y2="62.7998" gradientUnits="userSpaceOnUse">
<stop stop-color="white"/>
<stop offset="1" stop-color="white" stop-opacity="0"/>
</linearGradient>
<linearGradient id="paint2_linear_1_1058" x1="9.19888" y1="45.2552" x2="77.5657" y2="96.3604" gradientUnits="userSpaceOnUse">
<stop stop-color="white"/>
<stop offset="1" stop-color="white" stop-opacity="0"/>
</linearGradient>
<linearGradient id="paint3_linear_1_1058" x1="60.6059" y1="38.76" x2="78.2902" y2="21.0757" gradientUnits="userSpaceOnUse">
<stop stop-color="white" stop-opacity="0.2"/>
<stop offset="1" stop-color="white" stop-opacity="0.49"/>
</linearGradient>
<linearGradient id="paint4_linear_1_1058" x1="60.8877" y1="21.5181" x2="77.5516" y2="39.3357" gradientUnits="userSpaceOnUse">
<stop stop-color="white"/>
<stop offset="1" stop-color="white" stop-opacity="0"/>
</linearGradient>
<linearGradient id="paint5_linear_1_1058" x1="21.0757" y1="107.571" x2="38.76" y2="89.8862" gradientUnits="userSpaceOnUse">
<stop stop-color="white" stop-opacity="0.2"/>
<stop offset="1" stop-color="white" stop-opacity="0.49"/>
</linearGradient>
<linearGradient id="paint6_linear_1_1058" x1="21.3574" y1="90.3286" x2="38.0214" y2="108.146" gradientUnits="userSpaceOnUse">
<stop stop-color="white"/>
<stop offset="1" stop-color="white" stop-opacity="0"/>
</linearGradient>
<linearGradient id="paint7_linear_1_1058" x1="100.139" y1="107.571" x2="117.823" y2="89.8862" gradientUnits="userSpaceOnUse">
<stop stop-color="white" stop-opacity="0.2"/>
<stop offset="1" stop-color="white" stop-opacity="0.49"/>
</linearGradient>
<linearGradient id="paint8_linear_1_1058" x1="100.421" y1="90.3286" x2="117.085" y2="108.146" gradientUnits="userSpaceOnUse">
<stop stop-color="white"/>
<stop offset="1" stop-color="white" stop-opacity="0"/>
</linearGradient>
</defs>
</svg>
